<svg width="246" height="33" viewBox="0 0 246 33" fill="none" xmlns="http://www.w3.org/2000/svg">
<path d="M8.88 26.72L0.16 17.76L8.88 8.8H15.92L7.2 17.76L15.92 26.72H8.88ZM21.6794 20.84C21.6794 18.6 22.1194 16.6133 22.9994 14.88C23.906 13.1467 25.1327 11.8133 26.6794 10.88C28.226 9.94667 29.946 9.48 31.8394 9.48C33.2794 9.48 34.6527 9.8 35.9594 10.44C37.266 11.0533 38.306 11.88 39.0794 12.92V2.4H44.7594V32H39.0794V28.72C38.386 29.8133 37.4127 30.6933 36.1594 31.36C34.906 32.0267 33.4527 32.36 31.7994 32.36C29.9327 32.36 28.226 31.88 26.6794 30.92C25.1327 29.96 23.906 28.6133 22.9994 26.88C22.1194 25.12 21.6794 23.1067 21.6794 20.84ZM39.1194 20.92C39.1194 19.56 38.8527 18.4 38.3194 17.44C37.786 16.4533 37.066 15.7067 36.1594 15.2C35.2527 14.6667 34.2794 14.4 33.2394 14.4C32.1994 14.4 31.2394 14.6533 30.3594 15.16C29.4794 15.6667 28.7594 16.4133 28.1994 17.4C27.666 18.36 27.3994 19.5067 27.3994 20.84C27.3994 22.1733 27.666 23.3467 28.1994 24.36C28.7594 25.3467 29.4794 26.1067 30.3594 26.64C31.266 27.1733 32.226 27.44 33.2394 27.44C34.2794 27.44 35.2527 27.1867 36.1594 26.68C37.066 26.1467 37.786 25.4 38.3194 24.44C38.8527 23.4533 39.1194 22.28 39.1194 20.92ZM53.0688 7.2C52.0821 7.2 51.2554 6.89333 50.5888 6.28C49.9488 5.64 49.6288 4.85333 49.6288 3.92C49.6288 2.98667 49.9488 2.21333 50.5888 1.6C51.2554 0.959998 52.0821 0.639998 53.0688 0.639998C54.0554 0.639998 54.8688 0.959998 55.5088 1.6C56.1754 2.21333 56.5088 2.98667 56.5088 3.92C56.5088 4.85333 56.1754 5.64 55.5088 6.28C54.8688 6.89333 54.0554 7.2 53.0688 7.2ZM55.8288 9.84V32H50.2288V9.84H55.8288ZM70.6016 26.84L76.2016 9.84H82.1616L73.9616 32H67.1616L59.0016 9.84H65.0016L70.6016 26.84Z" fill="#9332E9"/>
<path d="M93.3981 20.92C93.3981 18.6267 93.8648 16.6267 94.7981 14.92C95.7315 13.1867 97.0248 11.8533 98.6781 10.92C100.331 9.96 102.225 9.48 104.358 9.48C107.105 9.48 109.371 10.1733 111.158 11.56C112.971 12.92 114.185 14.84 114.798 17.32H108.758C108.438 16.36 107.891 15.6133 107.118 15.08C106.371 14.52 105.438 14.24 104.318 14.24C102.718 14.24 101.451 14.8267 100.518 16C99.5848 17.1467 99.1181 18.7867 99.1181 20.92C99.1181 23.0267 99.5848 24.6667 100.518 25.84C101.451 26.9867 102.718 27.56 104.318 27.56C106.585 27.56 108.065 26.5467 108.758 24.52H114.798C114.185 26.92 112.971 28.8267 111.158 30.24C109.345 31.6533 107.078 32.36 104.358 32.36C102.225 32.36 100.331 31.8933 98.6781 30.96C97.0248 30 95.7315 28.6667 94.7981 26.96C93.8648 25.2267 93.3981 23.2133 93.3981 20.92ZM124.501 2.4V32H118.901V2.4H124.501ZM128.593 20.84C128.593 18.6 129.033 16.6133 129.913 14.88C130.82 13.1467 132.033 11.8133 133.553 10.88C135.1 9.94667 136.82 9.48 138.713 9.48C140.367 9.48 141.807 9.81333 143.033 10.48C144.287 11.1467 145.287 11.9867 146.033 13V9.84H151.673V32H146.033V28.76C145.313 29.8 144.313 30.6667 143.033 31.36C141.78 32.0267 140.327 32.36 138.673 32.36C136.807 32.36 135.1 31.88 133.553 30.92C132.033 29.96 130.82 28.6133 129.913 26.88C129.033 25.12 128.593 23.1067 128.593 20.84ZM146.033 20.92C146.033 19.56 145.767 18.4 145.233 17.44C144.7 16.4533 143.98 15.7067 143.073 15.2C142.167 14.6667 141.193 14.4 140.153 14.4C139.113 14.4 138.153 14.6533 137.273 15.16C136.393 15.6667 135.673 16.4133 135.113 17.4C134.58 18.36 134.313 19.5067 134.313 20.84C134.313 22.1733 134.58 23.3467 135.113 24.36C135.673 25.3467 136.393 26.1067 137.273 26.64C138.18 27.1733 139.14 27.44 140.153 27.44C141.193 27.44 142.167 27.1867 143.073 26.68C143.98 26.1467 144.7 25.4 145.233 24.44C145.767 23.4533 146.033 22.28 146.033 20.92ZM165.623 32.36C163.809 32.36 162.183 32.04 160.743 31.4C159.303 30.7333 158.156 29.84 157.303 28.72C156.476 27.6 156.023 26.36 155.943 25H161.583C161.689 25.8533 162.103 26.56 162.823 27.12C163.569 27.68 164.489 27.96 165.583 27.96C166.649 27.96 167.476 27.7467 168.063 27.32C168.676 26.8933 168.983 26.3467 168.983 25.68C168.983 24.96 168.609 24.4267 167.863 24.08C167.143 23.7067 165.983 23.3067 164.383 22.88C162.729 22.48 161.369 22.0667 160.303 21.64C159.263 21.2133 158.356 20.56 157.583 19.68C156.836 18.8 156.463 17.6133 156.463 16.12C156.463 14.8933 156.809 13.7733 157.503 12.76C158.223 11.7467 159.236 10.9467 160.543 10.36C161.876 9.77333 163.436 9.48 165.223 9.48C167.863 9.48 169.969 10.1467 171.543 11.48C173.116 12.7867 173.983 14.56 174.143 16.8H168.783C168.703 15.92 168.329 15.2267 167.663 14.72C167.023 14.1867 166.156 13.92 165.063 13.92C164.049 13.92 163.263 14.1067 162.703 14.48C162.169 14.8533 161.903 15.3733 161.903 16.04C161.903 16.7867 162.276 17.36 163.023 17.76C163.769 18.1333 164.929 18.52 166.503 18.92C168.103 19.32 169.423 19.7333 170.463 20.16C171.503 20.5867 172.396 21.2533 173.143 22.16C173.916 23.04 174.316 24.2133 174.343 25.68C174.343 26.96 173.983 28.1067 173.263 29.12C172.569 30.1333 171.556 30.9333 170.223 31.52C168.916 32.08 167.383 32.36 165.623 32.36ZM187.42 32.36C185.606 32.36 183.98 32.04 182.54 31.4C181.1 30.7333 179.953 29.84 179.1 28.72C178.273 27.6 177.82 26.36 177.74 25H183.38C183.486 25.8533 183.9 26.56 184.62 27.12C185.366 27.68 186.286 27.96 187.38 27.96C188.446 27.96 189.273 27.7467 189.86 27.32C190.473 26.8933 190.78 26.3467 190.78 25.68C190.78 24.96 190.406 24.4267 189.66 24.08C188.94 23.7067 187.78 23.3067 186.18 22.88C184.526 22.48 183.166 22.0667 182.1 21.64C181.06 21.2133 180.153 20.56 179.38 19.68C178.633 18.8 178.26 17.6133 178.26 16.12C178.26 14.8933 178.606 13.7733 179.3 12.76C180.02 11.7467 181.033 10.9467 182.34 10.36C183.673 9.77333 185.233 9.48 187.02 9.48C189.66 9.48 191.766 10.1467 193.34 11.48C194.913 12.7867 195.78 14.56 195.94 16.8H190.58C190.5 15.92 190.126 15.2267 189.46 14.72C188.82 14.1867 187.953 13.92 186.86 13.92C185.846 13.92 185.06 14.1067 184.5 14.48C183.966 14.8533 183.7 15.3733 183.7 16.04C183.7 16.7867 184.073 17.36 184.82 17.76C185.566 18.1333 186.726 18.52 188.3 18.92C189.9 19.32 191.22 19.7333 192.26 20.16C193.3 20.5867 194.193 21.2533 194.94 22.16C195.713 23.04 196.113 24.2133 196.14 25.68C196.14 26.96 195.78 28.1067 195.06 29.12C194.366 30.1333 193.353 30.9333 192.02 31.52C190.713 32.08 189.18 32.36 187.42 32.36ZM223.617 10.52V15.4H201.817V10.52H223.617ZM223.617 20.12V25H201.817V20.12H223.617ZM231.388 4.08H237.268L232.948 14.16H229.108L231.388 4.08ZM239.468 4.08H245.348L241.028 14.16H237.188L239.468 4.08Z" fill="#AFAAAA"/>
</svg>
