<svg width="39" height="38" viewBox="0 0 39 38" fill="none" xmlns="http://www.w3.org/2000/svg">
<path d="M29.913 6.574C29.4502 6.574 28.9978 6.70772 28.613 6.95825C28.2282 7.20878 27.9282 7.56487 27.7511 7.98148C27.574 8.3981 27.5277 8.85653 27.618 9.29881C27.7083 9.74108 27.9311 10.1473 28.2584 10.4662C28.5856 10.7851 29.0026 11.0022 29.4565 11.0902C29.9104 11.1782 30.3809 11.133 30.8085 10.9604C31.2361 10.7879 31.6015 10.4956 31.8586 10.1207C32.1158 9.74576 32.253 9.30494 32.253 8.854C32.253 8.24931 32.0065 7.66938 31.5676 7.2418C31.1288 6.81421 30.5336 6.574 29.913 6.574ZM38.883 11.172C38.8451 9.59557 38.5421 8.03586 37.986 6.555C37.4902 5.28795 36.7185 4.14063 35.724 3.192C34.7584 2.21811 33.5781 1.47094 32.2725 1.007C30.7567 0.448705 29.1542 0.146699 27.534 0.114C25.467 -1.06171e-07 24.804 0 19.5 0C14.196 0 13.533 -1.06171e-07 11.466 0.114C9.84585 0.146699 8.24332 0.448705 6.7275 1.007C5.42427 1.47563 4.24502 2.22217 3.276 3.192C2.27648 4.13284 1.50964 5.28284 1.0335 6.555C0.460514 8.03195 0.150559 9.59339 0.117 11.172C-1.08965e-07 13.186 0 13.832 0 19C0 24.168 -1.08965e-07 24.814 0.117 26.828C0.150559 28.4066 0.460514 29.968 1.0335 31.445C1.50964 32.7172 2.27648 33.8672 3.276 34.808C4.24502 35.7778 5.42427 36.5244 6.7275 36.993C8.24332 37.5513 9.84585 37.8533 11.466 37.886C13.533 38 14.196 38 19.5 38C24.804 38 25.467 38 27.534 37.886C29.1542 37.8533 30.7567 37.5513 32.2725 36.993C33.5781 36.5291 34.7584 35.7819 35.724 34.808C36.7229 33.8629 37.4953 32.7146 37.986 31.445C38.5421 29.9641 38.8451 28.4044 38.883 26.828C38.883 24.814 39 24.168 39 19C39 13.832 39 13.186 38.883 11.172ZM35.373 26.6C35.3588 27.8061 35.1346 29.001 34.71 30.134C34.3987 30.9609 33.8986 31.708 33.2475 32.319C32.615 32.947 31.8498 33.4332 31.005 33.744C29.8422 34.1577 28.6158 34.3762 27.378 34.39C25.428 34.485 24.7065 34.504 19.578 34.504C14.4495 34.504 13.728 34.504 11.778 34.39C10.4927 34.4134 9.21296 34.2206 7.995 33.82C7.18727 33.4933 6.45714 33.0083 5.85 32.395C5.20277 31.7846 4.70894 31.0369 4.407 30.21C3.93092 29.0608 3.66686 27.8387 3.627 26.6C3.627 24.7 3.51 23.997 3.51 19C3.51 14.003 3.51 13.3 3.627 11.4C3.63574 10.167 3.86675 8.9451 4.3095 7.79C4.65279 6.98803 5.17972 6.27315 5.85 5.7C6.44244 5.04672 7.17461 4.52788 7.995 4.18C9.18362 3.76208 10.4364 3.54365 11.7 3.534C13.65 3.534 14.3715 3.42 19.5 3.42C24.6285 3.42 25.35 3.42 27.3 3.534C28.5378 3.54783 29.7642 3.76627 30.927 4.18C31.8131 4.50044 32.6085 5.02141 33.2475 5.7C33.8865 6.28364 34.3858 6.99719 34.71 7.79C35.1434 8.94697 35.3677 10.1684 35.373 11.4C35.4705 13.3 35.49 14.003 35.49 19C35.49 23.997 35.4705 24.7 35.373 26.6ZM19.5 9.253C17.5223 9.25676 15.5902 9.8316 13.9477 10.9049C12.3052 11.9782 11.026 13.5018 10.2719 15.2831C9.51773 17.0645 9.32241 19.0237 9.7106 20.9132C10.0988 22.8026 11.0531 24.5376 12.4528 25.8989C13.8526 27.2601 15.6351 28.1865 17.5751 28.5611C19.515 28.9356 21.5254 28.7415 23.3522 28.0032C25.1789 27.2649 26.7401 26.0156 27.8385 24.4132C28.9368 22.8107 29.523 20.927 29.523 19C29.5256 17.7177 29.2679 16.4476 28.7649 15.2626C28.2619 14.0777 27.5234 13.0013 26.5919 12.0955C25.6604 11.1897 24.5543 10.4722 23.3372 9.98437C22.1201 9.49654 20.816 9.24799 19.5 9.253ZM19.5 25.327C18.2157 25.327 16.9603 24.9559 15.8924 24.2607C14.8246 23.5655 13.9923 22.5773 13.5008 21.4212C13.0093 20.2651 12.8807 18.993 13.1313 17.7657C13.3818 16.5383 14.0003 15.411 14.9084 14.5261C15.8165 13.6413 16.9736 13.0387 18.2332 12.7946C19.4928 12.5504 20.7984 12.6757 21.985 13.1546C23.1715 13.6335 24.1856 14.4444 24.8991 15.4849C25.6127 16.5254 25.9935 17.7486 25.9935 19C25.9935 19.8309 25.8255 20.6536 25.4992 21.4212C25.1729 22.1889 24.6946 22.8863 24.0916 23.4739C23.4886 24.0614 22.7728 24.5274 21.985 24.8454C21.1971 25.1633 20.3527 25.327 19.5 25.327Z" fill="black"/>
</svg>
