<svg width="192" height="31" viewBox="0 0 192 31" fill="none" xmlns="http://www.w3.org/2000/svg">
<path d="M41.154 9.944L38.034 24.53C38.502 24.8767 38.996 25.05 39.516 25.05C40.296 25.05 40.9893 24.6947 41.596 23.984C42.22 23.2733 42.74 22.372 43.156 21.28C43.5893 20.188 43.9187 18.992 44.144 17.692C44.3867 16.3747 44.508 15.1267 44.508 13.948C44.508 12.9773 44.4213 12.1627 44.248 11.504C44.092 10.828 43.8493 10.282 43.52 9.866C43.1907 9.45 42.7747 9.15533 42.272 8.982C41.7693 8.79133 41.18 8.696 40.504 8.696C39.62 8.696 38.7707 8.84333 37.956 9.138C37.1587 9.41533 36.4567 9.83133 35.85 10.386C35.2607 10.9233 34.784 11.582 34.42 12.362C34.0733 13.142 33.9 14.026 33.9 15.014C33.9 15.326 33.9173 15.586 33.952 15.794C33.9867 15.9847 34.0213 16.1493 34.056 16.288C34.0907 16.4093 34.1253 16.5133 34.16 16.6C34.212 16.6693 34.2467 16.73 34.264 16.782C33.3973 16.782 32.7127 16.6 32.21 16.236C31.7247 15.872 31.482 15.248 31.482 14.364C31.482 13.48 31.742 12.622 32.262 11.79C32.782 10.958 33.4753 10.23 34.342 9.606C35.226 8.96467 36.24 8.45333 37.384 8.072C38.5453 7.69067 39.7673 7.5 41.05 7.5C42.3327 7.5 43.416 7.69933 44.3 8.098C45.2013 8.47933 45.9293 9.01667 46.484 9.71C47.056 10.4033 47.4633 11.218 47.706 12.154C47.966 13.0727 48.096 14.0693 48.096 15.144C48.096 16.0973 48.0093 17.0593 47.836 18.03C47.6627 19.0007 47.4113 19.9367 47.082 20.838C46.77 21.7393 46.3887 22.5887 45.938 23.386C45.4873 24.1833 44.9933 24.8767 44.456 25.466C43.936 26.038 43.3727 26.4973 42.766 26.844C42.1593 27.1733 41.5353 27.338 40.894 27.338C40.3913 27.338 39.8713 27.2253 39.334 27C38.814 26.792 38.2767 26.4453 37.722 25.96L37.514 27H33.77L37.306 10.464L41.154 9.944ZM61.3562 14L59.4582 22.84C59.3889 23.1347 59.3542 23.412 59.3542 23.672C59.3542 24.036 59.4409 24.2873 59.6142 24.426C59.7875 24.5647 60.0562 24.634 60.4202 24.634C60.9229 24.634 61.3475 24.4173 61.6942 23.984C62.0582 23.5507 62.3355 23.0047 62.5262 22.346H63.6182C63.2542 23.4033 62.8382 24.244 62.3702 24.868C61.9195 25.4747 61.4515 25.9427 60.9662 26.272C60.4982 26.584 60.0389 26.7833 59.5882 26.87C59.1375 26.9567 58.7389 27 58.3922 27C57.6815 27 57.1009 26.8093 56.6502 26.428C56.2169 26.0467 55.9482 25.4833 55.8442 24.738C55.6535 25.0327 55.4282 25.3273 55.1682 25.622C54.9082 25.9167 54.6135 26.1767 54.2842 26.402C53.9722 26.6273 53.6255 26.8093 53.2442 26.948C52.8629 27.0867 52.4382 27.156 51.9702 27.156C51.5195 27.156 51.0862 27.0867 50.6702 26.948C50.2715 26.792 49.9075 26.5493 49.5782 26.22C49.2489 25.8907 48.9889 25.466 48.7982 24.946C48.6075 24.4087 48.5122 23.75 48.5122 22.97C48.5122 22.3807 48.5729 21.748 48.6942 21.072C48.8155 20.396 48.9975 19.72 49.2402 19.044C49.4829 18.368 49.7862 17.718 50.1502 17.094C50.5142 16.47 50.9475 15.924 51.4502 15.456C51.9529 14.9707 52.5075 14.5893 53.1142 14.312C53.7382 14.0173 54.4315 13.87 55.1942 13.87C55.4022 13.87 55.6189 13.8873 55.8442 13.922C56.0869 13.9393 56.3035 14 56.4942 14.104C56.7022 14.1907 56.8755 14.3293 57.0142 14.52C57.1702 14.6933 57.2742 14.9273 57.3262 15.222L57.5862 14H61.3562ZM56.0002 15.482C55.4455 15.482 54.9429 15.742 54.4922 16.262C54.0415 16.7647 53.6602 17.3887 53.3482 18.134C53.0362 18.862 52.7935 19.642 52.6202 20.474C52.4469 21.2887 52.3602 21.9993 52.3602 22.606C52.3602 23.1087 52.4035 23.4987 52.4902 23.776C52.5942 24.036 52.7069 24.2353 52.8282 24.374C52.9669 24.4953 53.1055 24.5733 53.2442 24.608C53.4002 24.6253 53.5389 24.634 53.6602 24.634C53.8509 24.634 54.0502 24.5907 54.2582 24.504C54.4835 24.4 54.7002 24.2527 54.9082 24.062C55.1162 23.8713 55.2982 23.6373 55.4542 23.36C55.6102 23.0653 55.7315 22.7273 55.8182 22.346L57.0662 16.47C57.0662 16.4007 57.0402 16.314 56.9882 16.21C56.9535 16.0887 56.8929 15.976 56.8062 15.872C56.7369 15.768 56.6329 15.6813 56.4942 15.612C56.3729 15.5253 56.2082 15.482 56.0002 15.482ZM68.0478 14L67.6838 15.638C68.1864 15.1527 68.7064 14.7367 69.2438 14.39C69.7984 14.0433 70.3358 13.87 70.8558 13.87C71.4451 13.87 71.8871 14.0693 72.1818 14.468C72.4938 14.8667 72.6498 15.3173 72.6498 15.82C72.6498 16.0453 72.6064 16.2707 72.5198 16.496C72.4504 16.7213 72.3378 16.9293 72.1818 17.12C72.0258 17.2933 71.8264 17.4407 71.5838 17.562C71.3584 17.666 71.0898 17.718 70.7778 17.718C70.4138 17.718 70.1624 17.6313 70.0238 17.458C69.9024 17.2847 69.8158 17.1027 69.7638 16.912C69.7118 16.704 69.6598 16.5133 69.6078 16.34C69.5731 16.1667 69.4604 16.08 69.2698 16.08C68.9404 16.08 68.6284 16.1753 68.3338 16.366C68.0391 16.5567 67.7184 16.808 67.3718 17.12L65.2918 27H61.5477L64.3038 14H68.0478ZM74.5991 10.542C74.5991 9.97 74.7985 9.48467 75.1971 9.086C75.5958 8.67 76.0811 8.462 76.6531 8.462C77.2251 8.462 77.7105 8.67 78.1091 9.086C78.5251 9.48467 78.7331 9.97 78.7331 10.542C78.7331 11.114 78.5251 11.5993 78.1091 11.998C77.7105 12.3967 77.2251 12.596 76.6531 12.596C76.0811 12.596 75.5958 12.3967 75.1971 11.998C74.7985 11.5993 74.5991 11.114 74.5991 10.542ZM77.8231 14L75.9511 22.84C75.8818 23.1347 75.8471 23.412 75.8471 23.672C75.8471 24.036 75.9338 24.2873 76.1071 24.426C76.2805 24.5647 76.5491 24.634 76.9131 24.634C77.4158 24.634 77.8838 24.4173 78.3171 23.984C78.7505 23.5507 79.0625 23.0047 79.2531 22.346H80.3451C79.9811 23.4033 79.5565 24.2527 79.0711 24.894C78.5858 25.518 78.0918 26.0033 77.5891 26.35C77.0865 26.6793 76.5925 26.896 76.1071 27C75.6391 27.104 75.2318 27.156 74.8851 27.156C74.1051 27.156 73.4465 26.9133 72.9091 26.428C72.3718 25.9253 72.1031 25.128 72.1031 24.036C72.1031 23.568 72.1725 23.0047 72.3111 22.346L74.0791 14H77.8231ZM86.0028 13.87C88.0134 13.87 89.1141 15.0053 89.3048 17.276C89.5128 17.224 89.7121 17.12 89.9028 16.964C90.0934 16.808 90.2581 16.6433 90.3968 16.47C90.5528 16.2793 90.6828 16.0973 90.7868 15.924C90.9081 15.7507 91.0034 15.6033 91.0728 15.482H91.9048C91.6448 16.0367 91.3068 16.652 90.8908 17.328C90.4921 18.004 89.9548 18.5413 89.2788 18.94C89.2094 20.2053 88.9928 21.3493 88.6288 22.372C88.2821 23.3773 87.8314 24.2353 87.2768 24.946C86.7221 25.6567 86.0808 26.2027 85.3528 26.584C84.6248 26.9653 83.8534 27.156 83.0388 27.156C82.4321 27.156 81.8688 27.0867 81.3488 26.948C80.8461 26.792 80.4128 26.5493 80.0488 26.22C79.6848 25.8907 79.3988 25.466 79.1908 24.946C78.9828 24.426 78.8788 23.7933 78.8788 23.048C78.8788 22.5453 78.9308 21.9733 79.0348 21.332C79.1388 20.6907 79.3034 20.032 79.5288 19.356C79.7714 18.6627 80.0748 17.9953 80.4388 17.354C80.8028 16.6953 81.2448 16.106 81.7648 15.586C82.3021 15.066 82.9174 14.65 83.6108 14.338C84.3041 14.026 85.1014 13.87 86.0028 13.87ZM84.0788 24.712C84.3908 24.712 84.7028 24.582 85.0148 24.322C85.3441 24.0447 85.6388 23.672 85.8988 23.204C86.1761 22.7187 86.4188 22.1553 86.6268 21.514C86.8348 20.8553 86.9908 20.1447 87.0948 19.382C86.6268 19.2607 86.3928 18.862 86.3928 18.186C86.3928 17.822 86.4621 17.5273 86.6008 17.302C86.7568 17.0593 86.9561 16.8947 87.1988 16.808C87.1641 16.3053 87.0688 15.95 86.9128 15.742C86.7741 15.534 86.5401 15.43 86.2108 15.43C85.7428 15.43 85.3008 15.69 84.8848 16.21C84.4688 16.7127 84.1048 17.3367 83.7928 18.082C83.4808 18.81 83.2294 19.59 83.0388 20.422C82.8481 21.2367 82.7528 21.9647 82.7528 22.606C82.7528 23.0393 82.7701 23.3947 82.8048 23.672C82.8568 23.932 82.9348 24.14 83.0388 24.296C83.1428 24.452 83.2814 24.5647 83.4548 24.634C83.6281 24.686 83.8361 24.712 84.0788 24.712ZM105.539 27L107.203 15.326L102.315 27H98.7531L99.2731 15.274L94.9311 27H92.8511L99.4551 9.138C98.1551 9.57133 97.1411 10.282 96.4131 11.27C95.6851 12.258 95.3211 13.4973 95.3211 14.988C95.3211 15.3 95.3385 15.56 95.3731 15.768C95.4078 15.9587 95.4425 16.1233 95.4771 16.262C95.5118 16.3833 95.5465 16.4873 95.5811 16.574C95.6331 16.6607 95.6678 16.73 95.6851 16.782C94.8531 16.782 94.1771 16.6087 93.6571 16.262C93.1545 15.898 92.9031 15.2913 92.9031 14.442C92.9031 13.61 93.1458 12.778 93.6311 11.946C94.1338 11.114 94.7751 10.3687 95.5551 9.71C96.3351 9.05133 97.2105 8.52267 98.1811 8.124C99.1691 7.708 100.148 7.5 101.119 7.5C101.83 7.5 102.506 7.62133 103.147 7.864L102.549 21.566L108.269 7.864H112.013L109.283 27H105.539ZM114.64 10.542C114.64 9.97 114.839 9.48467 115.238 9.086C115.637 8.67 116.122 8.462 116.694 8.462C117.266 8.462 117.751 8.67 118.15 9.086C118.566 9.48467 118.774 9.97 118.774 10.542C118.774 11.114 118.566 11.5993 118.15 11.998C117.751 12.3967 117.266 12.596 116.694 12.596C116.122 12.596 115.637 12.3967 115.238 11.998C114.839 11.5993 114.64 11.114 114.64 10.542ZM117.864 14L115.992 22.84C115.923 23.1347 115.888 23.412 115.888 23.672C115.888 24.036 115.975 24.2873 116.148 24.426C116.321 24.5647 116.59 24.634 116.954 24.634C117.457 24.634 117.925 24.4173 118.358 23.984C118.791 23.5507 119.103 23.0047 119.294 22.346H120.386C120.022 23.4033 119.597 24.2527 119.112 24.894C118.627 25.518 118.133 26.0033 117.63 26.35C117.127 26.6793 116.633 26.896 116.148 27C115.68 27.104 115.273 27.156 114.926 27.156C114.146 27.156 113.487 26.9133 112.95 26.428C112.413 25.9253 112.144 25.128 112.144 24.036C112.144 23.568 112.213 23.0047 112.352 22.346L114.12 14H117.864ZM126.772 17.588C126.772 16.704 126.46 16.262 125.836 16.262C125.368 16.262 124.96 16.496 124.614 16.964C124.267 17.432 123.998 17.9953 123.808 18.654L122.04 27H118.296L121.052 14H124.796L124.51 15.352C125.064 14.728 125.61 14.3293 126.148 14.156C126.685 13.9827 127.153 13.896 127.552 13.896C128.384 13.896 129.068 14.13 129.606 14.598C130.16 15.0487 130.438 15.794 130.438 16.834C130.438 17.354 130.368 17.9347 130.23 18.576C130.108 19.2 129.97 19.824 129.814 20.448C129.658 21.0547 129.51 21.6353 129.372 22.19C129.25 22.7273 129.19 23.178 129.19 23.542C129.19 23.8713 129.259 24.14 129.398 24.348C129.554 24.5387 129.831 24.634 130.23 24.634C130.507 24.634 130.75 24.582 130.958 24.478C131.183 24.3567 131.374 24.2007 131.53 24.01C131.703 23.802 131.859 23.5593 131.998 23.282C132.136 23.0047 132.275 22.6927 132.414 22.346H133.506C133.142 23.4207 132.752 24.2787 132.336 24.92C131.92 25.544 131.495 26.0207 131.062 26.35C130.628 26.6793 130.204 26.896 129.788 27C129.389 27.104 129.016 27.156 128.67 27.156C128.098 27.156 127.612 27.078 127.214 26.922C126.832 26.7487 126.52 26.5233 126.278 26.246C126.035 25.9687 125.862 25.6567 125.758 25.31C125.654 24.946 125.602 24.582 125.602 24.218C125.602 23.7847 125.662 23.2733 125.784 22.684C125.905 22.0773 126.035 21.4707 126.174 20.864C126.33 20.2573 126.468 19.668 126.59 19.096C126.711 18.5067 126.772 18.004 126.772 17.588ZM136.051 22.84C135.964 23.1867 135.921 23.49 135.921 23.75C135.921 24.0273 135.981 24.2527 136.103 24.426C136.241 24.5993 136.484 24.686 136.831 24.686C136.917 24.686 137.021 24.686 137.143 24.686C137.281 24.6687 137.403 24.6427 137.507 24.608C137.316 25.1627 137.108 25.6133 136.883 25.96C136.657 26.2893 136.423 26.5493 136.181 26.74C135.938 26.9133 135.695 27.026 135.453 27.078C135.21 27.13 134.976 27.156 134.751 27.156C133.832 27.156 133.165 26.8787 132.749 26.324C132.35 25.752 132.151 25.05 132.151 24.218C132.151 23.7673 132.203 23.308 132.307 22.84L133.971 15.04H133.113L133.321 14H134.179L134.959 10.412L138.807 9.892C138.72 10.2387 138.633 10.6287 138.547 11.062C138.46 11.426 138.365 11.8593 138.261 12.362C138.157 12.8647 138.044 13.4107 137.923 14H139.483L139.275 15.04H137.715L136.051 22.84ZM147.439 24.634C147.265 24.6167 147.135 24.556 147.049 24.452C146.979 24.348 146.945 24.2267 146.945 24.088C146.945 23.8453 147.066 23.6027 147.309 23.36C147.551 23.1 147.915 22.97 148.401 22.97C148.799 22.97 149.085 23.0913 149.259 23.334C149.449 23.5767 149.545 23.8713 149.545 24.218C149.545 24.5127 149.475 24.8247 149.337 25.154C149.198 25.4833 148.99 25.7867 148.713 26.064C148.435 26.3413 148.097 26.5667 147.699 26.74C147.317 26.9133 146.875 27 146.373 27H139.483L146.113 15.404H144.657C144.258 15.404 143.92 15.43 143.643 15.482C143.365 15.5167 143.227 15.6293 143.227 15.82C143.227 15.8547 143.235 15.8807 143.253 15.898C143.287 15.898 143.322 15.9153 143.357 15.95C143.409 15.9673 143.443 16.0107 143.461 16.08C143.495 16.132 143.513 16.236 143.513 16.392C143.513 16.8773 143.365 17.2327 143.071 17.458C142.776 17.666 142.455 17.77 142.109 17.77C141.814 17.77 141.537 17.6747 141.277 17.484C141.034 17.2933 140.913 17.0073 140.913 16.626C140.913 16.366 140.982 16.08 141.121 15.768C141.259 15.456 141.459 15.17 141.719 14.91C141.979 14.65 142.291 14.4333 142.655 14.26C143.036 14.0867 143.461 14 143.929 14H150.611L144.241 24.998C144.466 25.0153 144.761 25.05 145.125 25.102C145.506 25.1367 145.87 25.154 146.217 25.154C146.529 25.154 146.797 25.1193 147.023 25.05C147.265 24.9807 147.404 24.842 147.439 24.634ZM154.126 22.788C154.126 23.672 154.282 24.2613 154.594 24.556C154.906 24.8333 155.374 24.972 155.998 24.972C156.518 24.972 156.986 24.9027 157.402 24.764C157.818 24.6253 158.208 24.4433 158.572 24.218C158.936 23.9753 159.282 23.698 159.612 23.386C159.941 23.0567 160.27 22.71 160.6 22.346H161.484C161.12 22.9527 160.704 23.542 160.236 24.114C159.768 24.686 159.239 25.1973 158.65 25.648C158.06 26.0987 157.41 26.4627 156.7 26.74C155.989 27.0173 155.2 27.156 154.334 27.156C153.103 27.156 152.115 26.8353 151.37 26.194C150.642 25.5527 150.278 24.4953 150.278 23.022C150.278 22.5193 150.33 21.9473 150.434 21.306C150.538 20.6647 150.694 20.006 150.902 19.33C151.127 18.654 151.422 17.9953 151.786 17.354C152.15 16.6953 152.592 16.106 153.112 15.586C153.632 15.066 154.238 14.65 154.932 14.338C155.625 14.026 156.414 13.87 157.298 13.87C157.87 13.87 158.338 13.9393 158.702 14.078C159.083 14.2167 159.378 14.4073 159.586 14.65C159.811 14.8753 159.958 15.1353 160.028 15.43C160.114 15.7247 160.158 16.0367 160.158 16.366C160.158 17.094 159.993 17.7787 159.664 18.42C159.334 19.0613 158.892 19.6247 158.338 20.11C157.783 20.578 157.142 20.9593 156.414 21.254C155.703 21.5313 154.958 21.696 154.178 21.748C154.16 21.9387 154.143 22.1207 154.126 22.294C154.126 22.4673 154.126 22.632 154.126 22.788ZM158.156 16.314C158.156 15.9847 158.104 15.7247 158 15.534C157.913 15.3433 157.748 15.248 157.506 15.248C157.176 15.248 156.856 15.404 156.544 15.716C156.232 16.028 155.937 16.4353 155.66 16.938C155.382 17.4233 155.131 17.978 154.906 18.602C154.698 19.226 154.524 19.8587 154.386 20.5C154.888 20.4653 155.365 20.3267 155.816 20.084C156.284 19.8413 156.691 19.5293 157.038 19.148C157.384 18.7667 157.653 18.3333 157.844 17.848C158.052 17.3453 158.156 16.834 158.156 16.314ZM166.106 14L165.742 15.638C166.245 15.1527 166.765 14.7367 167.302 14.39C167.857 14.0433 168.394 13.87 168.914 13.87C169.504 13.87 169.946 14.0693 170.24 14.468C170.552 14.8667 170.708 15.3173 170.708 15.82C170.708 16.0453 170.665 16.2707 170.578 16.496C170.509 16.7213 170.396 16.9293 170.24 17.12C170.084 17.2933 169.885 17.4407 169.642 17.562C169.417 17.666 169.148 17.718 168.836 17.718C168.472 17.718 168.221 17.6313 168.082 17.458C167.961 17.2847 167.874 17.1027 167.822 16.912C167.77 16.704 167.718 16.5133 167.666 16.34C167.632 16.1667 167.519 16.08 167.328 16.08C166.999 16.08 166.687 16.1753 166.392 16.366C166.098 16.5567 165.777 16.808 165.43 17.12L163.35 27H159.606L162.362 14H166.106Z" fill="#43FCE6"/>
<path d="M12.1155 5.06803C14.4132 5.08006 16.6668 5.65592 18.6464 6.73686C20.6261 7.81781 22.2609 9.36515 23.3842 11.2211C24.5075 13.077 25.079 15.175 25.0404 17.3012C25.0019 19.4273 24.3546 21.5055 23.1647 23.3238C21.9748 25.142 20.2849 26.6352 18.2672 27.6511C16.2495 28.6669 13.9764 29.1691 11.6796 29.1063C9.38289 29.0436 7.14474 28.4181 5.19348 27.2938C3.24223 26.1694 1.64771 24.5865 0.572578 22.7063L8.53402 18.8112C8.86354 19.3874 9.35224 19.8726 9.95029 20.2172C10.5483 20.5618 11.2343 20.7535 11.9382 20.7727C12.6422 20.7919 13.3389 20.638 13.9573 20.3267C14.5757 20.0153 15.0936 19.5577 15.4583 19.0004C15.823 18.4431 16.0214 17.8062 16.0332 17.1545C16.045 16.5029 15.8699 15.8598 15.5256 15.291C15.1813 14.7222 14.6803 14.2479 14.0735 13.9166C13.4668 13.5853 12.776 13.4088 12.0718 13.4052L12.1155 5.06803Z" fill="#43FCE6"/>
</svg>
