<svg width="86" height="86" viewBox="0 0 86 86" fill="none" xmlns="http://www.w3.org/2000/svg">
<path d="M76.7857 46.0714C76.7857 47.7991 76.1938 49.2549 75.0101 50.4386L43.7679 81.6808C42.5201 82.8646 41.0644 83.4565 39.4007 83.4565C37.769 83.4565 36.3292 82.8646 35.0815 81.6808L31.4821 78.0815C30.2664 76.8657 29.6585 75.41 29.6585 73.7143C29.6585 72.0186 30.2664 70.5629 31.4821 69.3471L45.5435 55.2857H11.7578C10.0941 55.2857 8.74237 54.6858 7.70257 53.4861C6.66276 52.2863 6.14286 50.8386 6.14286 49.1429V43C6.14286 41.3043 6.66276 39.8566 7.70257 38.6568C8.74237 37.457 10.0941 36.8572 11.7578 36.8572H45.5435L31.4821 22.7478C30.2664 21.596 29.6585 20.1563 29.6585 18.4286C29.6585 16.7009 30.2664 15.2612 31.4821 14.1094L35.0815 10.5101C36.2972 9.29429 37.737 8.6864 39.4007 8.6864C41.0964 8.6864 42.5521 9.29429 43.7679 10.5101L75.0101 41.7523C76.1938 42.872 76.7857 44.3118 76.7857 46.0714Z" fill="#9532EE"/>
</svg>
