<svg width="41" height="41" viewBox="0 0 41 41" fill="none" xmlns="http://www.w3.org/2000/svg">
<path d="M20.5 0C9.18044 0 0 9.18044 0 20.5C0 31.8196 9.18044 41 20.5 41C31.8196 41 41 31.8196 41 20.5C41 9.18044 31.8196 0 20.5 0ZM22.1489 37.3457C22.0598 37.3457 21.9707 37.3457 21.837 37.3902V27.7196C24.1543 27.675 26.2489 27.6304 28.1652 27.4967C26.4717 32.7109 23.3076 36.187 22.1489 37.3457ZM18.8511 37.3457C17.6478 36.1424 14.5283 32.6663 12.8348 27.4967C14.7065 27.6304 16.8457 27.7196 19.163 27.7196V37.3902C19.0739 37.3902 18.9848 37.3457 18.8511 37.3457ZM3.56522 20.5C3.56522 19.3859 3.69891 18.2717 3.87717 17.2022C4.85761 17.0239 6.72935 16.7565 9.3587 16.4891C9.13587 17.7815 9.00217 19.1185 9.00217 20.5446C9.00217 21.9707 9.13587 23.3076 9.31413 24.5554C6.72935 24.288 4.81304 24.0207 3.83261 23.8424C3.69891 22.7283 3.56522 21.6141 3.56522 20.5ZM11.7207 20.5C11.7207 18.9848 11.8989 17.5587 12.1663 16.2217C14.2163 16.088 16.5337 15.9543 19.163 15.9543V25.0457C16.5783 25.0011 14.2163 24.912 12.1217 24.7337C11.8989 23.4413 11.7207 22.0152 11.7207 20.5ZM22.1043 3.65435C23.3076 4.85761 26.3826 8.42283 28.1207 13.5033C26.2489 13.3696 24.1543 13.2804 21.837 13.2804V3.60978C21.9261 3.60978 22.0152 3.65435 22.1043 3.65435ZM19.163 3.60978V13.2804C16.8457 13.325 14.7511 13.3696 12.8793 13.5033C14.5728 8.42283 17.6924 4.85761 18.8511 3.65435C18.9848 3.65435 19.0739 3.60978 19.163 3.60978ZM21.837 25.0457V15.9543C24.4217 15.9989 26.7837 16.088 28.8337 16.2217C29.1011 17.5587 29.2793 18.9848 29.2793 20.5C29.2793 22.0152 29.1457 23.4413 28.8783 24.7783C26.8283 24.912 24.4663 25.0011 21.837 25.0457ZM31.5967 16.4891C34.2261 16.7565 36.0978 17.0239 37.0783 17.2022C37.3011 18.2717 37.4348 19.3859 37.4348 20.5C37.4348 21.6141 37.3011 22.7283 37.1228 23.7978C36.1424 23.9761 34.2707 24.2435 31.6413 24.5109C31.8641 23.2185 31.9533 21.8815 31.9533 20.4554C31.9533 19.1185 31.8196 17.737 31.5967 16.4891ZM36.2761 14.35C35.0283 14.1717 33.2457 13.9489 30.9728 13.7261C29.9033 9.89348 28.0315 6.81848 26.4717 4.63478C30.9728 6.32826 34.538 9.89348 36.2761 14.35ZM14.5283 4.63478C12.9239 6.77391 11.0967 9.84891 10.0272 13.6815C7.79891 13.8598 6.0163 14.1272 4.72391 14.3054C6.46196 9.89348 10.0717 6.32826 14.5283 4.63478ZM4.72391 26.65C5.97174 26.8283 7.75435 27.0511 9.98261 27.2739C11.0522 31.1065 12.8348 34.1815 14.4391 36.3207C9.98261 34.5826 6.46196 31.062 4.72391 26.65ZM26.5609 36.3207C28.1652 34.1815 29.9478 31.1511 31.0174 27.3185C33.2457 27.1402 35.0283 26.8728 36.2761 26.6946C34.538 31.062 31.0174 34.5826 26.5609 36.3207Z" fill="black"/>
</svg>
